<svg version="1.1" xmlns="http://www.w3.org/2000/svg" xmlns:xlink="http://www.w3.org/1999/xlink" width="688.95703125" height="465"><defs/><g><text fill="#eeeeee" stroke="none" font-family="Arial" font-size="24px" font-style="normal" font-weight="normal" text-decoration="none" x="0" y="0">UNREGISTERED</text><text fill="#eeeeee" stroke="none" font-family="Arial" font-size="24px" font-style="normal" font-weight="normal" text-decoration="none" x="0" y="30">UNREGISTERED</text><text fill="#eeeeee" stroke="none" font-family="Arial" font-size="24px" font-style="normal" font-weight="normal" text-decoration="none" x="0" y="60">UNREGISTERED</text><text fill="#eeeeee" stroke="none" font-family="Arial" font-size="24px" font-style="normal" font-weight="normal" text-decoration="none" x="0" y="90">UNREGISTERED</text><text fill="#eeeeee" stroke="none" font-family="Arial" font-size="24px" font-style="normal" font-weight="normal" text-decoration="none" x="0" y="120">UNREGISTERED</text><text fill="#eeeeee" stroke="none" font-family="Arial" font-size="24px" font-style="normal" font-weight="normal" text-decoration="none" x="0" y="150">UNREGISTERED</text><text fill="#eeeeee" stroke="none" font-family="Arial" font-size="24px" font-style="normal" font-weight="normal" text-decoration="none" x="0" y="180">UNREGISTERED</text><text fill="#eeeeee" stroke="none" font-family="Arial" font-size="24px" font-style="normal" font-weight="normal" text-decoration="none" x="0" y="210">UNREGISTERED</text><text fill="#eeeeee" stroke="none" font-family="Arial" font-size="24px" font-style="normal" font-weight="normal" text-decoration="none" x="0" y="240">UNREGISTERED</text><text fill="#eeeeee" stroke="none" font-family="Arial" font-size="24px" font-style="normal" font-weight="normal" text-decoration="none" x="0" y="270">UNREGISTERED</text><text fill="#eeeeee" stroke="none" font-family="Arial" font-size="24px" font-style="normal" font-weight="normal" text-decoration="none" x="0" y="300">UNREGISTERED</text><text fill="#eeeeee" stroke="none" font-family="Arial" font-size="24px" font-style="normal" font-weight="normal" text-decoration="none" x="0" y="330">UNREGISTERED</text><text fill="#eeeeee" stroke="none" font-family="Arial" font-size="24px" font-style="normal" font-weight="normal" text-decoration="none" x="0" y="360">UNREGISTERED</text><text fill="#eeeeee" stroke="none" font-family="Arial" font-size="24px" font-style="normal" font-weight="normal" text-decoration="none" x="0" y="390">UNREGISTERED</text><text fill="#eeeeee" stroke="none" font-family="Arial" font-size="24px" font-style="normal" font-weight="normal" text-decoration="none" x="0" y="420">UNREGISTERED</text><text fill="#eeeeee" stroke="none" font-family="Arial" font-size="24px" font-style="normal" font-weight="normal" text-decoration="none" x="0" y="450">UNREGISTERED</text><text fill="#eeeeee" stroke="none" font-family="Arial" font-size="24px" font-style="normal" font-weight="normal" text-decoration="none" x="200" y="0">UNREGISTERED</text><text fill="#eeeeee" stroke="none" font-family="Arial" font-size="24px" font-style="normal" font-weight="normal" text-decoration="none" x="200" y="30">UNREGISTERED</text><text fill="#eeeeee" stroke="none" font-family="Arial" font-size="24px" font-style="normal" font-weight="normal" text-decoration="none" x="200" y="60">UNREGISTERED</text><text fill="#eeeeee" stroke="none" font-family="Arial" font-size="24px" font-style="normal" font-weight="normal" text-decoration="none" x="200" y="90">UNREGISTERED</text><text fill="#eeeeee" stroke="none" font-family="Arial" font-size="24px" font-style="normal" font-weight="normal" text-decoration="none" x="200" y="120">UNREGISTERED</text><text fill="#eeeeee" stroke="none" font-family="Arial" font-size="24px" font-style="normal" font-weight="normal" text-decoration="none" x="200" y="150">UNREGISTERED</text><text fill="#eeeeee" stroke="none" font-family="Arial" font-size="24px" font-style="normal" font-weight="normal" text-decoration="none" x="200" y="180">UNREGISTERED</text><text fill="#eeeeee" stroke="none" font-family="Arial" font-size="24px" font-style="normal" font-weight="normal" text-decoration="none" x="200" y="210">UNREGISTERED</text><text fill="#eeeeee" stroke="none" font-family="Arial" font-size="24px" font-style="normal" font-weight="normal" text-decoration="none" x="200" y="240">UNREGISTERED</text><text fill="#eeeeee" stroke="none" font-family="Arial" font-size="24px" font-style="normal" font-weight="normal" text-decoration="none" x="200" y="270">UNREGISTERED</text><text fill="#eeeeee" stroke="none" font-family="Arial" font-size="24px" font-style="normal" font-weight="normal" text-decoration="none" x="200" y="300">UNREGISTERED</text><text fill="#eeeeee" stroke="none" font-family="Arial" font-size="24px" font-style="normal" font-weight="normal" text-decoration="none" x="200" y="330">UNREGISTERED</text><text fill="#eeeeee" stroke="none" font-family="Arial" font-size="24px" font-style="normal" font-weight="normal" text-decoration="none" x="200" y="360">UNREGISTERED</text><text fill="#eeeeee" stroke="none" font-family="Arial" font-size="24px" font-style="normal" font-weight="normal" text-decoration="none" x="200" y="390">UNREGISTERED</text><text fill="#eeeeee" stroke="none" font-family="Arial" font-size="24px" font-style="normal" font-weight="normal" text-decoration="none" x="200" y="420">UNREGISTERED</text><text fill="#eeeeee" stroke="none" font-family="Arial" font-size="24px" font-style="normal" font-weight="normal" text-decoration="none" x="200" y="450">UNREGISTERED</text><text fill="#eeeeee" stroke="none" font-family="Arial" font-size="24px" font-style="normal" font-weight="normal" text-decoration="none" x="400" y="0">UNREGISTERED</text><text fill="#eeeeee" stroke="none" font-family="Arial" font-size="24px" font-style="normal" font-weight="normal" text-decoration="none" x="400" y="30">UNREGISTERED</text><text fill="#eeeeee" stroke="none" font-family="Arial" font-size="24px" font-style="normal" font-weight="normal" text-decoration="none" x="400" y="60">UNREGISTERED</text><text fill="#eeeeee" stroke="none" font-family="Arial" font-size="24px" font-style="normal" font-weight="normal" text-decoration="none" x="400" y="90">UNREGISTERED</text><text fill="#eeeeee" stroke="none" font-family="Arial" font-size="24px" font-style="normal" font-weight="normal" text-decoration="none" x="400" y="120">UNREGISTERED</text><text fill="#eeeeee" stroke="none" font-family="Arial" font-size="24px" font-style="normal" font-weight="normal" text-decoration="none" x="400" y="150">UNREGISTERED</text><text fill="#eeeeee" stroke="none" font-family="Arial" font-size="24px" font-style="normal" font-weight="normal" text-decoration="none" x="400" y="180">UNREGISTERED</text><text fill="#eeeeee" stroke="none" font-family="Arial" font-size="24px" font-style="normal" font-weight="normal" text-decoration="none" x="400" y="210">UNREGISTERED</text><text fill="#eeeeee" stroke="none" font-family="Arial" font-size="24px" font-style="normal" font-weight="normal" text-decoration="none" x="400" y="240">UNREGISTERED</text><text fill="#eeeeee" stroke="none" font-family="Arial" font-size="24px" font-style="normal" font-weight="normal" text-decoration="none" x="400" y="270">UNREGISTERED</text><text fill="#eeeeee" stroke="none" font-family="Arial" font-size="24px" font-style="normal" font-weight="normal" text-decoration="none" x="400" y="300">UNREGISTERED</text><text fill="#eeeeee" stroke="none" font-family="Arial" font-size="24px" font-style="normal" font-weight="normal" text-decoration="none" x="400" y="330">UNREGISTERED</text><text fill="#eeeeee" stroke="none" font-family="Arial" font-size="24px" font-style="normal" font-weight="normal" text-decoration="none" x="400" y="360">UNREGISTERED</text><text fill="#eeeeee" stroke="none" font-family="Arial" font-size="24px" font-style="normal" font-weight="normal" text-decoration="none" x="400" y="390">UNREGISTERED</text><text fill="#eeeeee" stroke="none" font-family="Arial" font-size="24px" font-style="normal" font-weight="normal" text-decoration="none" x="400" y="420">UNREGISTERED</text><text fill="#eeeeee" stroke="none" font-family="Arial" font-size="24px" font-style="normal" font-weight="normal" text-decoration="none" x="400" y="450">UNREGISTERED</text><text fill="#eeeeee" stroke="none" font-family="Arial" font-size="24px" font-style="normal" font-weight="normal" text-decoration="none" x="600" y="0">UNREGISTERED</text><text fill="#eeeeee" stroke="none" font-family="Arial" font-size="24px" font-style="normal" font-weight="normal" text-decoration="none" x="600" y="30">UNREGISTERED</text><text fill="#eeeeee" stroke="none" font-family="Arial" font-size="24px" font-style="normal" font-weight="normal" text-decoration="none" x="600" y="60">UNREGISTERED</text><text fill="#eeeeee" stroke="none" font-family="Arial" font-size="24px" font-style="normal" font-weight="normal" text-decoration="none" x="600" y="90">UNREGISTERED</text><text fill="#eeeeee" stroke="none" font-family="Arial" font-size="24px" font-style="normal" font-weight="normal" text-decoration="none" x="600" y="120">UNREGISTERED</text><text fill="#eeeeee" stroke="none" font-family="Arial" font-size="24px" font-style="normal" font-weight="normal" text-decoration="none" x="600" y="150">UNREGISTERED</text><text fill="#eeeeee" stroke="none" font-family="Arial" font-size="24px" font-style="normal" font-weight="normal" text-decoration="none" x="600" y="180">UNREGISTERED</text><text fill="#eeeeee" stroke="none" font-family="Arial" font-size="24px" font-style="normal" font-weight="normal" text-decoration="none" x="600" y="210">UNREGISTERED</text><text fill="#eeeeee" stroke="none" font-family="Arial" font-size="24px" font-style="normal" font-weight="normal" text-decoration="none" x="600" y="240">UNREGISTERED</text><text fill="#eeeeee" stroke="none" font-family="Arial" font-size="24px" font-style="normal" font-weight="normal" text-decoration="none" x="600" y="270">UNREGISTERED</text><text fill="#eeeeee" stroke="none" font-family="Arial" font-size="24px" font-style="normal" font-weight="normal" text-decoration="none" x="600" y="300">UNREGISTERED</text><text fill="#eeeeee" stroke="none" font-family="Arial" font-size="24px" font-style="normal" font-weight="normal" text-decoration="none" x="600" y="330">UNREGISTERED</text><text fill="#eeeeee" stroke="none" font-family="Arial" font-size="24px" font-style="normal" font-weight="normal" text-decoration="none" x="600" y="360">UNREGISTERED</text><text fill="#eeeeee" stroke="none" font-family="Arial" font-size="24px" font-style="normal" font-weight="normal" text-decoration="none" x="600" y="390">UNREGISTERED</text><text fill="#eeeeee" stroke="none" font-family="Arial" font-size="24px" font-style="normal" font-weight="normal" text-decoration="none" x="600" y="420">UNREGISTERED</text><text fill="#eeeeee" stroke="none" font-family="Arial" font-size="24px" font-style="normal" font-weight="normal" text-decoration="none" x="600" y="450">UNREGISTERED</text><g transform="translate(-102,-214) scale(1,1)"><rect fill="#C0C0C0" stroke="none" x="383" y="391" width="89.57080078125" height="100" opacity="0.2"/></g><g transform="translate(-102,-214) scale(1,1)"><rect fill="#ffffff" stroke="none" x="376" y="384" width="89.57080078125" height="100"/></g><g transform="translate(-102,-214) scale(1,1)"><path fill="none" stroke="#000000" d="M 376 384 L 465.57080078125 384 L 465.57080078125 484 L 376 484 L 376 384 Z Z" stroke-miterlimit="10"/></g><g transform="translate(-102,-214) scale(1,1)"><path fill="none" stroke="#000000" d="M 376 422 L 465.57080078125 422" stroke-miterlimit="10"/></g><g transform="translate(-102,-214) scale(1,1)"><path fill="none" stroke="#000000" d="M 376 432 L 465.57080078125 432" stroke-miterlimit="10"/></g><g transform="translate(-102,-214) scale(1,1)"><g><path fill="none" stroke="none"/><text fill="#000000" stroke="none" font-family="Arial" font-size="13px" font-style="normal" font-weight="normal" text-decoration="none" x="394.0458984375" y="401.5">«control»</text></g></g><g transform="translate(-102,-214) scale(1,1)"><g><path fill="none" stroke="none"/><text fill="#000000" stroke="none" font-family="Arial" font-size="13px" font-style="normal" font-weight="bold" text-decoration="none" x="391.17041015625" y="416.5">SmartGrid</text></g></g><g transform="translate(-102,-214) scale(1,1)"><g><path fill="none" stroke="none"/><text fill="#000000" stroke="none" font-family="Arial" font-size="13px" font-style="normal" font-weight="normal" text-decoration="none" x="381" y="449.5">+smartgrid()</text></g></g><g transform="translate(-102,-214) scale(1,1)"><g><path fill="none" stroke="none"/><text fill="#000000" stroke="none" font-family="Arial" font-size="13px" font-style="normal" font-weight="normal" text-decoration="none" x="381" y="464.5">-prop()</text></g></g><g transform="translate(-102,-214) scale(1,1)"><g><path fill="none" stroke="none"/><text fill="#000000" stroke="none" font-family="Arial" font-size="13px" font-style="normal" font-weight="normal" text-decoration="none" x="381" y="479.5">-pref()</text></g></g><g transform="translate(-102,-214) scale(1,1)"><rect fill="#C0C0C0" stroke="none" x="551" y="599" width="236.95703125" height="70" opacity="0.2"/></g><g transform="translate(-102,-214) scale(1,1)"><rect fill="#ffffff" stroke="none" x="544" y="592" width="236.95703125" height="70"/></g><g transform="translate(-102,-214) scale(1,1)"><path fill="none" stroke="#000000" d="M 544 592 L 780.95703125 592 L 780.95703125 662 L 544 662 L 544 592 Z Z" stroke-miterlimit="10"/></g><g transform="translate(-102,-214) scale(1,1)"><path fill="none" stroke="#000000" d="M 544 630 L 780.95703125 630" stroke-miterlimit="10"/></g><g transform="translate(-102,-214) scale(1,1)"><path fill="none" stroke="#000000" d="M 544 640 L 780.95703125 640" stroke-miterlimit="10"/></g><g transform="translate(-102,-214) scale(1,1)"><g><path fill="none" stroke="none"/><text fill="#000000" stroke="none" font-family="Arial" font-size="13px" font-style="normal" font-weight="normal" text-decoration="none" x="639.712646484375" y="609.5">«entity»</text></g></g><g transform="translate(-102,-214) scale(1,1)"><g><path fill="none" stroke="none"/><text fill="#000000" stroke="none" font-family="Arial" font-size="13px" font-style="normal" font-weight="bold" text-decoration="none" x="629.9658203125" y="624.5">MixEnergie</text></g></g><g transform="translate(-102,-214) scale(1,1)"><g><path fill="none" stroke="none"/><text fill="#000000" stroke="none" font-family="Arial" font-size="13px" font-style="normal" font-weight="normal" text-decoration="none" x="549" y="657.5">+getResultAlgoMix(float consumption)</text></g></g><g transform="translate(-102,-214) scale(1,1)"><rect fill="#C0C0C0" stroke="none" x="335" y="599" width="182.7734375" height="70" opacity="0.2"/></g><g transform="translate(-102,-214) scale(1,1)"><rect fill="#ffffff" stroke="none" x="328" y="592" width="182.7734375" height="70"/></g><g transform="translate(-102,-214) scale(1,1)"><path fill="none" stroke="#000000" d="M 328 592 L 510.7734375 592 L 510.7734375 662 L 328 662 L 328 592 Z Z" stroke-miterlimit="10"/></g><g transform="translate(-102,-214) scale(1,1)"><path fill="none" stroke="#000000" d="M 328 630 L 510.7734375 630" stroke-miterlimit="10"/></g><g transform="translate(-102,-214) scale(1,1)"><path fill="none" stroke="#000000" d="M 328 640 L 510.7734375 640" stroke-miterlimit="10"/></g><g transform="translate(-102,-214) scale(1,1)"><g><path fill="none" stroke="none"/><text fill="#000000" stroke="none" font-family="Arial" font-size="13px" font-style="normal" font-weight="normal" text-decoration="none" x="396.620849609375" y="609.5">«entity»</text></g></g><g transform="translate(-102,-214) scale(1,1)"><g><path fill="none" stroke="none"/><text fill="#000000" stroke="none" font-family="Arial" font-size="13px" font-style="normal" font-weight="bold" text-decoration="none" x="375.305419921875" y="624.5">BuildingCentral</text></g></g><g transform="translate(-102,-214) scale(1,1)"><g><path fill="none" stroke="none"/><text fill="#000000" stroke="none" font-family="Arial" font-size="13px" font-style="normal" font-weight="normal" text-decoration="none" x="333" y="657.5">+readBuildingsTypeCentral()</text></g></g><g transform="translate(-102,-214) scale(1,1)"><rect fill="#C0C0C0" stroke="none" x="119" y="591" width="185.6806640625" height="85" opacity="0.2"/></g><g transform="translate(-102,-214) scale(1,1)"><rect fill="#ffffff" stroke="none" x="112" y="584" width="185.6806640625" height="85"/></g><g transform="translate(-102,-214) scale(1,1)"><path fill="none" stroke="#000000" d="M 112 584 L 297.6806640625 584 L 297.6806640625 669 L 112 669 L 112 584 Z Z" stroke-miterlimit="10"/></g><g transform="translate(-102,-214) scale(1,1)"><path fill="none" stroke="#000000" d="M 112 622 L 297.6806640625 622" stroke-miterlimit="10"/></g><g transform="translate(-102,-214) scale(1,1)"><path fill="none" stroke="#000000" d="M 112 632 L 297.6806640625 632" stroke-miterlimit="10"/></g><g transform="translate(-102,-214) scale(1,1)"><g><path fill="none" stroke="none"/><text fill="#000000" stroke="none" font-family="Arial" font-size="13px" font-style="normal" font-weight="normal" text-decoration="none" x="182.074462890625" y="601.5">«entity»</text></g></g><g transform="translate(-102,-214) scale(1,1)"><g><path fill="none" stroke="none"/><text fill="#000000" stroke="none" font-family="Arial" font-size="13px" font-style="normal" font-weight="bold" text-decoration="none" x="183.88671875" y="616.5">Central</text></g></g><g transform="translate(-102,-214) scale(1,1)"><g><path fill="none" stroke="none"/><text fill="#000000" stroke="none" font-family="Arial" font-size="13px" font-style="normal" font-weight="normal" text-decoration="none" x="117" y="649.5">+updateStateOfCentral(int[] id)</text></g></g><g transform="translate(-102,-214) scale(1,1)"><g><path fill="none" stroke="none"/><text fill="#000000" stroke="none" font-family="Arial" font-size="13px" font-style="normal" font-weight="normal" text-decoration="none" x="117" y="664.5">+updateResetStateOfCentral()</text></g></g><g transform="translate(-102,-214) scale(1,1)"><path fill="none" stroke="#000000" d="M 420 485 L 419 591" stroke-miterlimit="10"/></g><g transform="translate(-102,-214) scale(1,1)"><path fill="none" stroke="#000000" d="M 414.88653957927755 580.7980666848313 L 419 591 L 423.3052004707335 580.877488013996" stroke-miterlimit="10"/></g><g transform="translate(-102,-214) scale(1,1)"><path fill="none" stroke="#000000" d="M 467 471 L 617 591" stroke-miterlimit="10"/></g><g transform="translate(-102,-214) scale(1,1)"><path fill="none" stroke="#000000" d="M 606.4346192883949 587.9385084650058 L 617 591 L 611.6939490779461 581.3643462280668" stroke-miterlimit="10"/></g><g transform="translate(-102,-214) scale(1,1)"><path fill="none" stroke="#000000" d="M 375 474 L 252 583" stroke-miterlimit="10"/></g><g transform="translate(-102,-214) scale(1,1)"><path fill="none" stroke="#000000" d="M 256.81402545062576 573.1093398116845 L 252 583 L 262.3977829305117 579.4102771513725" stroke-miterlimit="10"/></g><g transform="translate(-102,-214) scale(1,1)"><rect fill="#C0C0C0" stroke="none" x="391" y="231" width="77.6689453125" height="57" opacity="0.2"/></g><g transform="translate(-102,-214) scale(1,1)"><rect fill="#ffffff" stroke="none" x="384" y="224" width="77.6689453125" height="57"/></g><g transform="translate(-102,-214) scale(1,1)"><path fill="none" stroke="#000000" d="M 384 224 L 461.6689453125 224 L 461.6689453125 281 L 384 281 L 384 224 Z Z" stroke-miterlimit="10"/></g><g transform="translate(-102,-214) scale(1,1)"><path fill="none" stroke="#000000" d="M 384 262 L 461.6689453125 262" stroke-miterlimit="10"/></g><g transform="translate(-102,-214) scale(1,1)"><path fill="none" stroke="#000000" d="M 384 272 L 461.6689453125 272" stroke-miterlimit="10"/></g><g transform="translate(-102,-214) scale(1,1)"><g><path fill="none" stroke="none"/><text fill="#000000" stroke="none" font-family="Arial" font-size="13px" font-style="normal" font-weight="normal" text-decoration="none" x="388.5" y="241.5">«boundary»</text></g></g><g transform="translate(-102,-214) scale(1,1)"><g><path fill="none" stroke="none"/><text fill="#000000" stroke="none" font-family="Arial" font-size="13px" font-style="normal" font-weight="bold" text-decoration="none" x="393.219482421875" y="256.5">SmartGrid</text></g></g><g transform="translate(-102,-214) scale(1,1)"><path fill="none" stroke="#000000" d="M 422 282 L 421 383" stroke-miterlimit="10"/></g><g transform="translate(-102,-214) scale(1,1)"><path fill="none" stroke="#000000" d="M 416.89130416910814 372.7961468763407 L 421 383 L 425.3099270541145 372.87949957817244" stroke-miterlimit="10"/></g></g></svg>